<svg width="237" height="26" viewBox="0 0 237 26" fill="none" xmlns="http://www.w3.org/2000/svg">
<path fill-rule="evenodd" clip-rule="evenodd" d="M75.7514 23.3038C75.7514 23.8107 75.4961 24.0642 74.9854 24.0642H65.9885C65.7712 24.0642 65.5946 24.0008 65.4588 23.8741C65.323 23.7474 65.2551 23.5683 65.2551 23.3369C65.2551 23.1386 65.3013 22.9788 65.3936 22.8576C65.486 22.7363 65.6299 22.6372 65.8255 22.56L66.5264 22.3452C66.7002 22.2901 66.836 22.1854 66.9338 22.0311C67.0316 21.8768 67.0805 21.6565 67.0805 21.37V11.8162C67.0805 11.662 67.0425 11.5325 66.9664 11.4278C66.8904 11.3231 66.7491 11.2267 66.5427 11.1386L65.5974 10.8245C65.3474 10.7033 65.1682 10.5738 65.0595 10.4361C64.9508 10.2983 64.8965 10.1303 64.8965 9.93194C64.8965 9.73359 64.9644 9.57106 65.1002 9.44434L65.1536 9.39979C65.2837 9.30276 65.4534 9.25425 65.6625 9.25425H67.0928L67.0815 9.15766C67.051 8.96448 66.9746 8.77905 66.8523 8.60136C66.6894 8.36445 66.5046 8.09723 66.2982 7.79971C66.0917 7.50219 65.907 7.14682 65.744 6.73359C65.5811 6.32037 65.4996 5.81073 65.4996 5.20467C65.4996 3.76114 65.9885 2.60687 66.9664 1.74186C67.9444 0.876843 69.3352 0.444336 71.1389 0.444336C72.3015 0.444336 73.2659 0.631664 74.0319 1.00632C74.798 1.38098 75.3711 1.8796 75.7514 2.50219C76.1317 3.12478 76.3219 3.80522 76.3219 4.54351C76.3219 5.41403 76.0964 6.06693 75.6455 6.50219C75.1946 6.93745 74.616 7.15508 73.9097 7.15508C73.1273 7.15508 72.4971 6.90164 72.019 6.39475C71.5409 5.88786 71.3019 5.21569 71.3019 4.37822V2.90715C71.3019 2.52147 71.2258 2.23772 71.0737 2.05591C70.9216 1.87409 70.688 1.78318 70.3729 1.78318C69.9708 1.78318 69.6666 1.92092 69.4601 2.1964C69.2537 2.47188 69.1505 2.86858 69.1505 3.38648C69.1505 3.91541 69.2727 4.41128 69.5172 4.87409C69.7617 5.3369 70.0632 5.7694 70.4218 6.17161C70.7803 6.57381 71.1389 6.95949 71.4975 7.32863C71.856 7.69778 72.1576 8.06142 72.402 8.41954L72.4717 8.5269C72.6037 8.74144 72.6918 8.955 72.7358 9.16756L72.7507 9.25425H75.1647C75.4146 9.25425 75.6075 9.30659 75.7433 9.41128C75.8791 9.51596 75.947 9.6785 75.947 9.89888C75.947 10.2295 75.8058 10.4994 75.5232 10.7088C75.2407 10.9182 74.7952 11.0228 74.1868 11.0228H73.0295V21.3204C73.0295 21.6289 73.0757 21.8658 73.1681 22.0311C73.2604 22.1964 73.4098 22.2956 73.6163 22.3286L75.018 22.5435C75.2679 22.5766 75.4526 22.6565 75.5721 22.7832C75.6917 22.9099 75.7514 23.0835 75.7514 23.3038ZM43.6593 23.684C42.6814 24.1578 41.5405 24.3947 40.2366 24.3947C38.8567 24.3947 37.6207 24.1027 36.5287 23.5187C35.4367 22.9347 34.5755 22.089 33.9453 20.9815C33.3151 19.8741 33 18.527 33 16.9402C33 15.4085 33.3287 14.0394 33.9861 12.8328C34.6434 11.6262 35.5589 10.673 36.7324 9.97326C37.9059 9.27354 39.275 8.92367 40.8397 8.92367C42.1762 8.92367 43.3035 9.12202 44.2216 9.51872C45.1398 9.91541 45.8406 10.4526 46.3242 11.1303C46.8077 11.808 47.0495 12.5655 47.0495 13.403C47.0495 14.2846 46.7968 14.976 46.2916 15.4774C45.7863 15.9788 45.099 16.2295 44.2298 16.2295C43.3388 16.2295 42.6624 15.9733 42.2006 15.4609C41.7388 14.9485 41.5079 14.246 41.5079 13.3534V12.2956C41.5079 11.7556 41.4101 11.3479 41.2145 11.0724C41.0189 10.797 40.7419 10.6592 40.3833 10.6592C40.0247 10.6592 39.7015 10.8052 39.4135 11.0972C39.1256 11.3892 38.9028 11.8273 38.7453 12.4113C38.5877 12.9953 38.509 13.7171 38.509 14.5766C38.509 15.8107 38.691 16.8465 39.055 17.684C39.419 18.5215 39.9161 19.1496 40.5463 19.5683C41.1765 19.987 41.8936 20.1964 42.6977 20.1964C43.5018 20.1964 44.1755 20.0779 44.7187 19.841C45.262 19.6041 45.6804 19.2047 45.9737 18.6427C46.1367 18.4884 46.2644 18.3892 46.3568 18.3452C46.4491 18.3011 46.5388 18.279 46.6257 18.279C46.7344 18.2901 46.824 18.3424 46.8946 18.4361C46.9652 18.5297 46.9951 18.6757 46.9843 18.8741C46.8973 19.954 46.5659 20.9071 45.99 21.7336C45.4142 22.56 44.6373 23.2102 43.6593 23.684ZM60.2269 23.3534C59.0045 24.0256 57.5838 24.3617 55.9648 24.3617C54.3893 24.3617 53.0066 24.0339 51.8168 23.3782C50.627 22.7226 49.7007 21.8162 49.0379 20.6592C48.3751 19.5022 48.0437 18.1633 48.0437 16.6427C48.0437 15.1881 48.3914 13.8796 49.0868 12.7171C49.7822 11.5545 50.7438 10.6317 51.9717 9.94847C53.1995 9.26527 54.612 8.92367 56.2093 8.92367C57.7957 8.92367 59.1811 9.25425 60.3655 9.91541C61.5498 10.5766 62.4734 11.4912 63.1362 12.6592C63.7991 13.8273 64.1305 15.1771 64.1305 16.7088C64.1305 18.1633 63.7855 19.4664 63.0955 20.6179C62.4055 21.7694 61.4493 22.6813 60.2269 23.3534ZM57.2035 22.6427C56.8667 22.7088 56.538 22.56 56.2175 22.1964C55.8969 21.8328 55.5927 21.2212 55.3047 20.3617C55.0168 19.5022 54.7424 18.3727 54.4817 16.9733C54.2317 15.5738 54.0905 14.4223 54.0579 13.5187C54.0253 12.6151 54.0905 11.9319 54.2535 11.4691C54.4165 11.0063 54.6664 10.7363 55.0032 10.6592C55.3401 10.5931 55.6687 10.7419 55.9893 11.1055C56.3098 11.4691 56.6168 12.0807 56.9102 12.9402C57.2035 13.7997 57.4806 14.9292 57.7414 16.3286C58.0022 17.7281 58.1461 18.8824 58.1733 19.7914C58.2005 20.7005 58.1298 21.3865 57.9614 21.8493C57.793 22.3121 57.5404 22.5766 57.2035 22.6427ZM86.3619 24.0642C86.8726 24.0642 87.1279 23.8107 87.1279 23.3038C87.1279 23.0835 87.0681 22.9099 86.9486 22.7832C86.8291 22.6565 86.6444 22.5766 86.3945 22.5435L84.9928 22.3286C84.7863 22.2956 84.6369 22.1964 84.5446 22.0311C84.4522 21.8658 84.406 21.6289 84.406 21.3204V11.0228H85.5632C86.1717 11.0228 86.6172 10.9182 86.8997 10.7088C87.1822 10.4994 87.3235 10.2295 87.3235 9.89888C87.3235 9.6785 87.2556 9.51596 87.1198 9.41128C86.9839 9.30659 86.7911 9.25425 86.5411 9.25425H84.1271L84.1122 9.16756C84.0682 8.955 83.9802 8.74144 83.8482 8.5269L83.7785 8.41954C83.534 8.06142 83.2325 7.69778 82.8739 7.32863C82.5154 6.95949 82.1568 6.57381 81.7982 6.17161C81.4397 5.7694 81.1381 5.3369 80.8937 4.87409C80.6492 4.41128 80.5269 3.91541 80.5269 3.38648C80.5269 2.86858 80.6302 2.47188 80.8366 2.1964C81.0431 1.92092 81.3473 1.78318 81.7493 1.78318C82.0644 1.78318 82.2981 1.87409 82.4502 2.05591C82.6023 2.23772 82.6784 2.52147 82.6784 2.90715V4.37822C82.6784 5.21569 82.9174 5.88786 83.3955 6.39475C83.8736 6.90164 84.5038 7.15508 85.2862 7.15508C85.9924 7.15508 86.571 6.93745 87.022 6.50219C87.4729 6.06693 87.6984 5.41403 87.6984 4.54351C87.6984 3.80522 87.5082 3.12478 87.1279 2.50219C86.7476 1.8796 86.1744 1.38098 85.4084 1.00632C84.6424 0.631664 83.678 0.444336 82.5154 0.444336C80.7117 0.444336 79.3208 0.876843 78.3429 1.74186C77.365 2.60687 76.876 3.76114 76.876 5.20467C76.876 5.81073 76.9575 6.32037 77.1205 6.73359C77.2835 7.14682 77.4682 7.50219 77.6747 7.79971C77.8811 8.09723 78.0658 8.36445 78.2288 8.60136C78.3511 8.77905 78.4275 8.96448 78.458 9.15766L78.4692 9.25425H77.039C76.8299 9.25425 76.6602 9.30276 76.5301 9.39979L76.4767 9.44434C76.3409 9.57106 76.273 9.73359 76.273 9.93194C76.273 10.1303 76.3273 10.2983 76.436 10.4361C76.5446 10.5738 76.7239 10.7033 76.9738 10.8245L77.9192 11.1386C78.1256 11.2267 78.2669 11.3231 78.3429 11.4278C78.419 11.5325 78.457 11.662 78.457 11.8162V21.37C78.457 21.6565 78.4081 21.8768 78.3103 22.0311C78.2125 22.1854 78.0767 22.2901 77.9029 22.3452L77.202 22.56C77.0064 22.6372 76.8625 22.7363 76.7701 22.8576C76.6777 22.9788 76.6316 23.1386 76.6316 23.3369C76.6316 23.5683 76.6995 23.7474 76.8353 23.8741C76.9711 24.0008 77.1477 24.0642 77.365 24.0642H86.3619ZM99.1237 23.5848C98.0697 24.1248 96.8528 24.3947 95.4728 24.3947C93.9516 24.3947 92.6151 24.0779 91.4633 23.4443C90.3116 22.8107 89.4124 21.9237 88.7659 20.7832C88.1194 19.6427 87.7961 18.3231 87.7961 16.8245C87.7961 15.2487 88.1085 13.8686 88.7333 12.684C89.3581 11.4994 90.2627 10.5766 91.447 9.91541C92.6314 9.25425 94.0548 8.92367 95.7173 8.92367C97.1299 8.92367 98.3468 9.20191 99.3682 9.75839C100.39 10.3149 101.175 11.0697 101.723 12.0228C102.272 12.976 102.546 14.0366 102.546 15.2047C102.546 15.7116 102.411 16.111 102.139 16.403L102.074 16.4678C101.806 16.7166 101.437 16.841 100.965 16.841H93.5147L93.5307 16.9173C93.7284 17.8247 94.0661 18.5514 94.5438 19.0972C95.3587 20.0284 96.4453 20.4939 97.8035 20.4939C98.6728 20.4939 99.4416 20.2956 100.11 19.8989C100.778 19.5022 101.226 18.9512 101.454 18.246C101.585 18.1027 101.702 18.0063 101.805 17.9567C101.908 17.9071 101.998 17.8824 102.074 17.8824C102.182 17.8824 102.275 17.9264 102.351 18.0146C102.427 18.1027 102.465 18.2515 102.465 18.4609C102.465 19.5408 102.172 20.5297 101.585 21.4278C100.998 22.3259 100.178 23.0449 99.1237 23.5848ZM93.3447 15.516C93.3291 15.2625 93.3214 14.9989 93.3214 14.7253C93.3214 13.6895 93.3975 12.8741 93.5496 12.279C93.7017 11.684 93.8973 11.2625 94.1363 11.0146C94.3754 10.7667 94.6416 10.6427 94.935 10.6427C95.3153 10.6427 95.6711 10.9678 96.0025 11.6179C96.3339 12.268 96.4996 13.3479 96.4996 14.8576C96.4996 15.3204 96.2932 15.5518 95.8803 15.5518H93.3467L93.3447 15.516ZM114.705 23.5848C113.651 24.1248 112.434 24.3947 111.054 24.3947C109.533 24.3947 108.197 24.0779 107.045 23.4443C105.893 22.8107 104.994 21.9237 104.347 20.7832C103.701 19.6427 103.378 18.3231 103.378 16.8245C103.378 15.2487 103.69 13.8686 104.315 12.684C104.94 11.4994 105.844 10.5766 107.029 9.91541C108.213 9.25425 109.636 8.92367 111.299 8.92367C112.711 8.92367 113.928 9.20191 114.95 9.75839C115.971 10.3149 116.756 11.0697 117.305 12.0228C117.854 12.976 118.128 14.0366 118.128 15.2047C118.128 15.7116 117.992 16.111 117.721 16.403L117.656 16.4678C117.388 16.7166 117.018 16.841 116.547 16.841H109.096L109.112 16.9173C109.31 17.8247 109.648 18.5514 110.125 19.0972C110.94 20.0284 112.027 20.4939 113.385 20.4939C114.254 20.4939 115.023 20.2956 115.691 19.8989C116.36 19.5022 116.808 18.9512 117.036 18.246C117.166 18.1027 117.283 18.0063 117.386 17.9567C117.49 17.9071 117.579 17.8824 117.655 17.8824C117.764 17.8824 117.856 17.9264 117.932 18.0146C118.008 18.1027 118.046 18.2515 118.046 18.4609C118.046 19.5408 117.753 20.5297 117.166 21.4278C116.58 22.3259 115.759 23.0449 114.705 23.5848ZM108.926 15.516C108.911 15.2625 108.903 14.9989 108.903 14.7253C108.903 13.6895 108.979 12.8741 109.131 12.279C109.283 11.684 109.479 11.2625 109.718 11.0146C109.957 10.7667 110.223 10.6427 110.517 10.6427C110.897 10.6427 111.253 10.9678 111.584 11.6179C111.915 12.268 112.081 13.3479 112.081 14.8576C112.081 15.3204 111.875 15.5518 111.462 15.5518H108.928L108.926 15.516ZM128.6 23.8576C128.464 23.9953 128.266 24.0642 128.005 24.0642H119.856C119.617 24.0642 119.429 23.9981 119.293 23.8658C119.158 23.7336 119.09 23.5518 119.09 23.3204C119.09 23.1441 119.13 22.9981 119.212 22.8824C119.293 22.7666 119.405 22.6592 119.546 22.56L119.921 22.4113C120.062 22.3452 120.16 22.2405 120.214 22.0972C120.269 21.954 120.296 21.7171 120.296 21.3865V12.9898C120.296 12.7253 120.266 12.5352 120.206 12.4195C120.146 12.3038 120.046 12.2129 119.905 12.1468L119.481 12.0972C119.329 12.0091 119.217 11.9154 119.147 11.8162C119.076 11.7171 119.041 11.5903 119.041 11.4361C119.041 11.2598 119.095 11.1027 119.204 10.965C119.312 10.8273 119.497 10.7088 119.758 10.6096L124.387 9.27078C124.658 9.16059 124.886 9.08345 125.071 9.03938C125.256 8.9953 125.413 8.97326 125.544 8.97326C125.729 8.97326 125.867 9.03938 125.959 9.17161L125.989 9.21956C126.065 9.35778 126.118 9.57871 126.147 9.88235L126.271 12.4508L126.299 12.356C126.354 12.177 126.415 12.0054 126.481 11.841C126.878 10.8548 127.402 10.122 128.054 9.64268C128.706 9.16334 129.418 8.92367 130.189 8.92367C131.123 8.92367 131.841 9.23772 132.34 9.86582C132.84 10.4939 133.09 11.4471 133.09 12.7253C133.09 13.9925 132.829 14.9237 132.308 15.5187C131.786 16.1138 131.113 16.4113 130.287 16.4113C129.483 16.4113 128.888 16.2074 128.502 15.7997C128.116 15.392 127.913 14.8135 127.891 14.0642L127.875 13.403C127.864 13.1496 127.815 12.9512 127.728 12.808C127.641 12.6647 127.5 12.5931 127.304 12.5931C127.109 12.5931 126.937 12.695 126.791 12.8989C126.644 13.1027 126.533 13.414 126.457 13.8328C126.381 14.2515 126.343 14.7859 126.343 15.4361V21.2543C126.343 21.5628 126.391 21.808 126.489 21.9898C126.587 22.1716 126.739 22.2846 126.946 22.3286L128.168 22.5766C128.396 22.6096 128.559 22.695 128.657 22.8328C128.755 22.9705 128.804 23.133 128.804 23.3204C128.804 23.5408 128.736 23.7198 128.6 23.8576ZM141.631 24.3617C143.25 24.3617 144.67 24.0256 145.893 23.3534C147.115 22.6813 148.071 21.7694 148.761 20.6179C149.451 19.4664 149.796 18.1633 149.796 16.7088C149.796 15.1771 149.465 13.8273 148.802 12.6592C148.139 11.4912 147.216 10.5766 146.031 9.91541C144.847 9.25425 143.462 8.92367 141.875 8.92367C140.278 8.92367 138.865 9.26527 137.637 9.94847C136.41 10.6317 135.448 11.5545 134.753 12.7171C134.057 13.8796 133.71 15.1881 133.71 16.6427C133.71 18.1633 134.041 19.5022 134.704 20.6592C135.367 21.8162 136.293 22.7226 137.483 23.3782C138.672 24.0339 140.055 24.3617 141.631 24.3617ZM141.883 22.1964C142.204 22.56 142.533 22.7088 142.869 22.6427C143.206 22.5766 143.459 22.3121 143.627 21.8493C143.796 21.3865 143.866 20.7005 143.839 19.7914C143.812 18.8824 143.668 17.7281 143.407 16.3286C143.146 14.9292 142.869 13.7997 142.576 12.9402C142.283 12.0807 141.976 11.4691 141.655 11.1055C141.335 10.7419 141.006 10.5931 140.669 10.6592C140.332 10.7363 140.082 11.0063 139.919 11.4691C139.756 11.9319 139.691 12.6151 139.724 13.5187C139.756 14.4223 139.898 15.5738 140.147 16.9733C140.408 18.3727 140.683 19.5022 140.971 20.3617C141.259 21.2212 141.563 21.8328 141.883 22.1964ZM162.721 24.3947C163.634 24.3947 164.384 24.2267 164.97 23.8906C165.557 23.5545 165.994 23.1551 166.282 22.6923C166.57 22.2295 166.714 21.8052 166.714 21.4195C166.714 21.2543 166.679 21.1165 166.608 21.0063C166.538 20.8961 166.443 20.841 166.323 20.841C166.269 20.841 166.22 20.852 166.176 20.8741C166.133 20.8961 166.095 20.9292 166.062 20.9733C166.008 21.1716 165.924 21.3093 165.81 21.3865C165.696 21.4636 165.573 21.5022 165.443 21.5022C165.258 21.5022 165.12 21.4388 165.027 21.3121C164.935 21.1854 164.889 21.0173 164.889 20.808V13.5022C164.889 12.0476 164.397 10.9209 163.414 10.122C162.43 9.32312 160.89 8.92367 158.793 8.92367C157.163 8.92367 155.802 9.12753 154.71 9.53524C153.618 9.94296 152.798 10.4636 152.249 11.0972C151.701 11.7308 151.426 12.3782 151.426 13.0394C151.426 13.7446 151.63 14.2818 152.037 14.6509C152.445 15.0201 153.034 15.2047 153.806 15.2047C154.751 15.2047 155.495 14.9485 156.039 14.4361C156.582 13.9237 156.854 13.2598 156.854 12.4443V11.1881C156.854 10.8796 156.949 10.6399 157.139 10.4691C157.329 10.2983 157.565 10.2129 157.848 10.2129C158.152 10.2129 158.394 10.3259 158.573 10.5518C158.752 10.7777 158.842 11.0835 158.842 11.4691L158.842 16.2873L158.755 16.2685C158.493 16.2178 158.189 16.1889 157.844 16.1817L157.669 16.1799C155.332 16.1799 153.591 16.5766 152.445 17.37C151.299 18.1633 150.725 19.2708 150.725 20.6923C150.725 21.7722 151.119 22.6592 151.907 23.3534C152.695 24.0476 153.741 24.3947 155.044 24.3947C156.022 24.3947 156.935 24.1936 157.783 23.7914C158.418 23.4898 158.935 23.0936 159.332 22.6029L159.355 22.5743L159.379 22.6482C159.504 23.0055 159.733 23.3256 160.067 23.6085L160.17 23.6923C160.773 24.1606 161.624 24.3947 162.721 24.3947ZM157.106 21.279C157.372 21.6372 157.723 21.8162 158.158 21.8162L158.251 21.813C158.436 21.8001 158.615 21.7484 158.789 21.6581L158.842 21.628V17.3865L158.761 17.3617C158.576 17.3121 158.359 17.2873 158.109 17.2873C157.685 17.2873 157.345 17.4857 157.09 17.8824C156.835 18.279 156.707 18.8631 156.707 19.6344C156.707 20.3727 156.84 20.9209 157.106 21.279ZM174.212 24.4443C176.146 24.4443 177.629 23.9981 178.661 23.1055C179.694 22.2129 180.21 20.9953 180.21 19.4526C180.21 18.516 180.036 17.695 179.688 16.9898C179.34 16.2846 178.732 15.6592 177.863 15.1138C176.993 14.5683 175.771 14.0532 174.195 13.5683C173.609 13.381 173.155 13.1909 172.834 12.9981C172.514 12.8052 172.294 12.5986 172.174 12.3782C172.055 12.1578 171.995 11.9209 171.995 11.6675C171.995 11.2928 172.131 10.9898 172.403 10.7584C172.674 10.527 173.076 10.4113 173.609 10.4113C174.348 10.4113 175.046 10.6592 175.703 11.1551C176.36 11.6509 177.086 12.4994 177.879 13.7005C178.085 13.954 178.292 14.1386 178.498 14.2543C178.705 14.37 178.9 14.4058 179.085 14.3617C179.313 14.2956 179.454 14.1441 179.509 13.9071C179.563 13.6702 179.552 13.3314 179.476 12.8906L179.052 9.84929C179.009 9.52974 178.927 9.30384 178.808 9.17161C178.688 9.03938 178.531 8.97326 178.335 8.97326C178.161 8.97326 177.944 9.03387 177.683 9.15508C177.423 9.27629 177.164 9.40026 176.909 9.52698C176.654 9.6537 176.461 9.71706 176.331 9.71706C176.211 9.71706 176.034 9.65095 175.801 9.51872C175.567 9.38648 175.239 9.25425 174.815 9.12202C174.391 8.98979 173.842 8.92367 173.169 8.92367C172.049 8.92367 171.042 9.12753 170.145 9.53524C169.249 9.94296 168.542 10.5242 168.026 11.279C167.51 12.0339 167.252 12.9347 167.252 13.9815C167.252 14.9071 167.445 15.7171 167.831 16.4113C168.217 17.1055 168.806 17.7005 169.599 18.1964C170.392 18.6923 171.392 19.0945 172.598 19.403C173.38 19.6124 173.981 19.8245 174.399 20.0394C174.817 20.2543 175.105 20.4884 175.263 20.7419C175.421 20.9953 175.499 21.2763 175.499 21.5848C175.499 21.9925 175.363 22.3286 175.092 22.5931C174.82 22.8576 174.407 22.9898 173.853 22.9898C173.332 22.9898 172.834 22.8768 172.362 22.6509C171.889 22.4251 171.403 22.0366 170.903 21.4857C170.403 20.9347 169.844 20.1799 169.224 19.2212C169.04 18.9678 168.83 18.7914 168.597 18.6923C168.363 18.5931 168.127 18.5986 167.888 18.7088C167.66 18.797 167.513 18.9843 167.448 19.2708C167.383 19.5573 167.399 19.9099 167.497 20.3286L168.002 23.6179C168.078 23.9485 168.187 24.1689 168.328 24.279C168.469 24.3892 168.621 24.4443 168.784 24.4443C168.969 24.4443 169.194 24.3837 169.461 24.2625L170.259 23.8989C170.525 23.7777 170.74 23.7171 170.903 23.7171C171.066 23.7171 171.281 23.7777 171.547 23.8989C171.813 24.0201 172.161 24.1413 172.59 24.2625C173.019 24.3837 173.56 24.4443 174.212 24.4443ZM189.663 23.8245C188.946 24.2047 188.098 24.3947 187.12 24.3947C185.469 24.3947 184.227 23.9925 183.396 23.1881C182.565 22.3837 182.149 21.1165 182.149 19.3865V11.9154C182.149 11.684 182.127 11.5077 182.084 11.3865C182.041 11.2653 181.932 11.1661 181.758 11.089L180.992 10.841C180.807 10.7529 180.688 10.6454 180.633 10.5187C180.579 10.392 180.552 10.235 180.552 10.0476C180.552 9.81624 180.633 9.62615 180.796 9.47739C180.959 9.32863 181.16 9.25425 181.399 9.25425H182.198C182.296 9.25425 182.399 9.21569 182.508 9.13855C182.616 9.06142 182.763 8.90715 182.948 8.67574L185.963 6.14682C186.18 5.88235 186.398 5.68125 186.615 5.54351C186.832 5.40577 187.05 5.3369 187.267 5.3369C187.517 5.3369 187.712 5.41403 187.854 5.5683L187.898 5.62299C188.01 5.77753 188.066 6.00173 188.066 6.29558L188.065 9.25425H191.472C191.711 9.25425 191.896 9.30659 192.026 9.41128C192.157 9.51596 192.222 9.6785 192.222 9.89888C192.222 10.2074 192.086 10.4719 191.814 10.6923L191.754 10.7378C191.48 10.9278 191.065 11.0228 190.51 11.0228H188.065L188.066 18.56C188.066 19.3865 188.204 19.9981 188.481 20.3947C188.758 20.7914 189.163 20.9898 189.695 20.9898C189.924 20.9898 190.136 20.9402 190.331 20.841C190.527 20.7419 190.703 20.6124 190.861 20.4526C191.018 20.2928 191.168 20.1138 191.309 19.9154C191.45 19.7171 191.586 19.5187 191.717 19.3204C191.825 19.2763 191.92 19.2956 192.002 19.3782C192.083 19.4609 192.119 19.6289 192.108 19.8824C192.032 20.7749 191.784 21.56 191.366 22.2377C190.948 22.9154 190.38 23.4443 189.663 23.8245ZM200.339 24.3947C201.718 24.3947 202.935 24.1248 203.989 23.5848C205.043 23.0449 205.864 22.3259 206.451 21.4278C207.037 20.5297 207.331 19.5408 207.331 18.4609C207.331 18.2515 207.293 18.1027 207.217 18.0146C207.14 17.9264 207.048 17.8824 206.939 17.8824C206.863 17.8824 206.774 17.9071 206.671 17.9567C206.567 18.0063 206.451 18.1027 206.32 18.246C206.092 18.9512 205.644 19.5022 204.975 19.8989C204.307 20.2956 203.538 20.4939 202.669 20.4939C201.311 20.4939 200.224 20.0284 199.409 19.0972C198.932 18.5514 198.594 17.8247 198.396 16.9173L198.38 16.841H205.831C206.303 16.841 206.672 16.7166 206.94 16.4678L207.005 16.403C207.276 16.111 207.412 15.7116 207.412 15.2047C207.412 14.0366 207.138 12.976 206.589 12.0228C206.04 11.0697 205.255 10.3149 204.234 9.75839C203.212 9.20191 201.996 8.92367 200.583 8.92367C198.921 8.92367 197.497 9.25425 196.313 9.91541C195.128 10.5766 194.224 11.4994 193.599 12.684C192.974 13.8686 192.662 15.2487 192.662 16.8245C192.662 18.3231 192.985 19.6427 193.632 20.7832C194.278 21.9237 195.177 22.8107 196.329 23.4443C197.481 24.0779 198.817 24.3947 200.339 24.3947ZM198.187 14.7253C198.187 14.9989 198.195 15.2625 198.21 15.516L198.212 15.5518H200.746C201.159 15.5518 201.365 15.3204 201.365 14.8576C201.365 13.3479 201.2 12.268 200.868 11.6179C200.537 10.9678 200.181 10.6427 199.801 10.6427C199.507 10.6427 199.241 10.7667 199.002 11.0146C198.763 11.2625 198.567 11.684 198.415 12.279C198.263 12.8741 198.187 13.6895 198.187 14.7253ZM217.289 24.0642C217.55 24.0642 217.748 23.9953 217.884 23.8576C218.02 23.7198 218.088 23.5408 218.088 23.3204C218.088 23.133 218.039 22.9705 217.941 22.8328C217.843 22.695 217.68 22.6096 217.452 22.5766L216.23 22.3286C216.023 22.2846 215.871 22.1716 215.773 21.9898C215.676 21.808 215.627 21.5628 215.627 21.2543V15.4361C215.627 14.7859 215.665 14.2515 215.741 13.8328C215.817 13.414 215.928 13.1027 216.075 12.8989C216.222 12.695 216.393 12.5931 216.588 12.5931C216.784 12.5931 216.925 12.6647 217.012 12.808C217.099 12.9512 217.148 13.1496 217.159 13.403L217.175 14.0642C217.197 14.8135 217.4 15.392 217.786 15.7997C218.172 16.2074 218.767 16.4113 219.571 16.4113C220.397 16.4113 221.07 16.1138 221.592 15.5187C222.114 14.9237 222.374 13.9925 222.374 12.7253C222.374 11.4471 222.124 10.4939 221.625 9.86582C221.125 9.23772 220.408 8.92367 219.473 8.92367C218.702 8.92367 217.99 9.16334 217.338 9.64268C216.686 10.122 216.162 10.8548 215.765 11.841C215.699 12.0054 215.639 12.177 215.583 12.356L215.555 12.4512L215.431 9.88235C215.402 9.57871 215.35 9.35778 215.273 9.21956L215.244 9.17161C215.151 9.03938 215.013 8.97326 214.828 8.97326C214.698 8.97326 214.54 8.9953 214.355 9.03938C214.171 9.08345 213.942 9.16059 213.671 9.27078L209.042 10.6096C208.781 10.7088 208.596 10.8273 208.488 10.965C208.379 11.1027 208.325 11.2598 208.325 11.4361C208.325 11.5903 208.36 11.7171 208.431 11.8162C208.501 11.9154 208.613 12.0091 208.765 12.0972L209.189 12.1468C209.33 12.2129 209.43 12.3038 209.49 12.4195C209.55 12.5352 209.58 12.7253 209.58 12.9898V21.3865C209.58 21.7171 209.553 21.954 209.498 22.0972C209.444 22.2405 209.346 22.3452 209.205 22.4113L208.83 22.56C208.689 22.6592 208.577 22.7666 208.496 22.8824C208.414 22.9981 208.374 23.1441 208.374 23.3204C208.374 23.5518 208.442 23.7336 208.577 23.8658C208.713 23.9981 208.901 24.0642 209.14 24.0642H217.289ZM234.452 23.1055C233.419 23.9981 231.936 24.4443 230.002 24.4443C229.35 24.4443 228.81 24.3837 228.38 24.2625C227.951 24.1413 227.603 24.0201 227.337 23.8989C227.071 23.7777 226.856 23.7171 226.693 23.7171C226.53 23.7171 226.316 23.7777 226.05 23.8989L225.251 24.2625C224.985 24.3837 224.759 24.4443 224.575 24.4443C224.412 24.4443 224.26 24.3892 224.118 24.279C223.977 24.1689 223.868 23.9485 223.792 23.6179L223.287 20.3286C223.189 19.9099 223.173 19.5573 223.238 19.2708C223.303 18.9843 223.45 18.797 223.678 18.7088C223.917 18.5986 224.154 18.5931 224.387 18.6923C224.621 18.7914 224.83 18.9678 225.015 19.2212C225.634 20.1799 226.194 20.9347 226.693 21.4857C227.193 22.0366 227.68 22.4251 228.152 22.6509C228.625 22.8768 229.122 22.9898 229.644 22.9898C230.198 22.9898 230.611 22.8576 230.882 22.5931C231.154 22.3286 231.29 21.9925 231.29 21.5848C231.29 21.2763 231.211 20.9953 231.053 20.7419C230.896 20.4884 230.608 20.2543 230.19 20.0394C229.771 19.8245 229.171 19.6124 228.389 19.403C227.182 19.0945 226.183 18.6923 225.39 18.1964C224.596 17.7005 224.007 17.1055 223.621 16.4113C223.235 15.7171 223.043 14.9071 223.043 13.9815C223.043 12.9347 223.301 12.0339 223.817 11.279C224.333 10.5242 225.039 9.94296 225.936 9.53524C226.832 9.12753 227.84 8.92367 228.959 8.92367C229.633 8.92367 230.181 8.98979 230.605 9.12202C231.029 9.25425 231.358 9.38648 231.591 9.51872C231.825 9.65095 232.001 9.71706 232.121 9.71706C232.251 9.71706 232.444 9.6537 232.7 9.52698C232.955 9.40026 233.213 9.27629 233.474 9.15508C233.734 9.03387 233.952 8.97326 234.126 8.97326C234.321 8.97326 234.479 9.03938 234.598 9.17161C234.718 9.30384 234.799 9.52974 234.843 9.84929L235.267 12.8906C235.343 13.3314 235.353 13.6702 235.299 13.9071C235.245 14.1441 235.104 14.2956 234.875 14.3617C234.691 14.4058 234.495 14.37 234.289 14.2543C234.082 14.1386 233.876 13.954 233.669 13.7005C232.876 12.4994 232.151 11.6509 231.493 11.1551C230.836 10.6592 230.138 10.4113 229.399 10.4113C228.867 10.4113 228.465 10.527 228.193 10.7584C227.921 10.9898 227.785 11.2928 227.785 11.6675C227.785 11.9209 227.845 12.1578 227.965 12.3782C228.084 12.5986 228.304 12.8052 228.625 12.9981C228.945 13.1909 229.399 13.381 229.986 13.5683C231.561 14.0532 232.784 14.5683 233.653 15.1138C234.522 15.6592 235.131 16.2846 235.478 16.9898C235.826 17.695 236 18.516 236 19.4526C236 20.9953 235.484 22.2129 234.452 23.1055Z" fill="white"/>
<path fill-rule="evenodd" clip-rule="evenodd" d="M14.4893 4.44702C10.9749 0.935462 5.76554 0.429955 2.87661 3.322C-0.0138254 6.21254 0.491663 11.4221 4.00008 14.9352C4.93606 15.8712 6.01454 16.5867 7.15301 17.0997C7.52651 14.9292 8.59748 12.8426 10.2234 11.1296C9.68496 10.9376 9.13297 10.7756 8.55698 10.6181C5.14606 9.6821 3.4511 6.83655 3.05511 3.5005C3.38262 3.89436 3.68082 4.30747 3.97814 4.71937C4.555 5.51854 5.12855 6.31312 5.90654 6.95355C7.11679 7.95009 8.44522 8.33478 9.89855 8.75564C9.95466 8.77188 10.011 8.78819 10.0674 8.80458C10.7559 9.00409 11.3544 9.29959 11.9034 9.6446C13.3464 8.59008 14.9738 7.88807 16.6538 7.59856C16.1423 6.46005 15.4253 5.38303 14.4893 4.44702ZM8.54648 17.9337C8.76998 15.7602 9.82296 13.6347 11.5104 11.9471C15.0248 8.43558 20.2342 7.92857 23.1232 10.8221C26.0136 13.7127 25.5096 18.9222 21.9967 22.4353C20.3092 24.1228 18.1838 25.1758 16.0103 25.4008C15.7208 25.4293 15.4343 25.4443 15.1538 25.4443C13.2849 25.4443 11.6154 24.7888 10.3854 23.5588C8.96947 22.1443 8.31549 20.1463 8.54648 17.9337ZM13.6869 19.7172C14.8388 18.8382 16.0853 18.4902 17.4413 18.1197C20.8522 17.1837 22.5457 14.3382 22.9432 11.0021C22.6184 11.3938 22.3224 11.8041 22.0273 12.2132C21.4487 13.0152 20.8735 13.8125 20.0917 14.4552C18.8778 15.4533 17.5463 15.8387 16.0864 16.2611L15.9308 16.3062C12.5934 17.2752 10.9434 20.0968 10.5624 23.3803C10.8912 22.9853 11.1924 22.5752 11.492 22.1673C12.1423 21.2817 12.7852 20.4063 13.6869 19.7172Z" fill="#0E8784"/>
</svg>
